<mxfile host="Electron" agent="Mozilla/5.0 (Windows NT 10.0; Win64; x64) AppleWebKit/537.36 (KHTML, like Gecko) draw.io/25.0.2 Chrome/128.0.6613.186 Electron/32.2.5 Safari/537.36" version="25.0.2">
  <diagram name="Page-1" id="07BDeaKay-RhWRJhK7al">
    <mxGraphModel dx="3326" dy="1735" grid="0" gridSize="10" guides="1" tooltips="1" connect="1" arrows="1" fold="1" page="0" pageScale="1" pageWidth="850" pageHeight="1100" math="0" shadow="0">
      <root>
        <mxCell id="0" />
        <mxCell id="1" parent="0" />
        <mxCell id="ZZ5o5wnqqSk5ztr6BBlJ-2" value="&lt;font style=&quot;font-size: 24px;&quot;&gt;Enterprise Cloud&lt;/font&gt;&lt;div&gt;&lt;font style=&quot;font-size: 24px;&quot;&gt;Landing Zone&lt;/font&gt;&lt;/div&gt;" style="rounded=0;whiteSpace=wrap;html=1;fontFamily=Architects Daughter;fontSource=https%3A%2F%2Ffonts.googleapis.com%2Fcss%3Ffamily%3DArchitects%2BDaughter;verticalAlign=top;fillColor=#b0e3e6;strokeColor=#0e8088;" parent="1" vertex="1">
          <mxGeometry x="-218" y="-181" width="885" height="545" as="geometry" />
        </mxCell>
        <mxCell id="ZZ5o5wnqqSk5ztr6BBlJ-4" value="Azure" style="shape=image;verticalLabelPosition=bottom;labelBackgroundColor=default;verticalAlign=top;aspect=fixed;imageAspect=0;image=https://swimburger.net/media/ppnn3pcl/azure.png;fontSize=23;fontFamily=Architects Daughter;fontSource=https%3A%2F%2Ffonts.googleapis.com%2Fcss%3Ffamily%3DArchitects%2BDaughter;" parent="1" vertex="1">
          <mxGeometry x="132" y="175.00000000000006" width="148.2" height="148.2" as="geometry" />
        </mxCell>
        <mxCell id="ZZ5o5wnqqSk5ztr6BBlJ-5" value="Entra ID" style="shape=image;verticalLabelPosition=bottom;labelBackgroundColor=default;verticalAlign=top;aspect=fixed;imageAspect=0;image=https://upload.wikimedia.org/wikipedia/commons/thumb/8/8c/Microsoft_Entra_ID_color_icon.svg/1200px-Microsoft_Entra_ID_color_icon.svg.png;fontSize=23;fontFamily=Architects Daughter;fontSource=https%3A%2F%2Ffonts.googleapis.com%2Fcss%3Ffamily%3DArchitects%2BDaughter;" parent="1" vertex="1">
          <mxGeometry x="-129" y="-81" width="146" height="146" as="geometry" />
        </mxCell>
        <mxCell id="ZZ5o5wnqqSk5ztr6BBlJ-6" value="&lt;font style=&quot;font-size: 23px;&quot;&gt;Azure DevOps&lt;/font&gt;" style="image;aspect=fixed;html=1;points=[];align=center;fontSize=12;image=img/lib/azure2/devops/Azure_DevOps.svg;fontFamily=Architects Daughter;fontSource=https%3A%2F%2Ffonts.googleapis.com%2Fcss%3Ffamily%3DArchitects%2BDaughter;" parent="1" vertex="1">
          <mxGeometry x="343" y="-81" width="145" height="145" as="geometry" />
        </mxCell>
        <mxCell id="ZZ5o5wnqqSk5ztr6BBlJ-7" value="&lt;font style=&quot;font-size: 23px;&quot;&gt;GitHub&lt;/font&gt;" style="dashed=0;outlineConnect=0;html=1;align=center;labelPosition=center;verticalLabelPosition=bottom;verticalAlign=top;shape=mxgraph.weblogos.github;fontFamily=Architects Daughter;fontSource=https%3A%2F%2Ffonts.googleapis.com%2Fcss%3Ffamily%3DArchitects%2BDaughter;" parent="1" vertex="1">
          <mxGeometry x="510" y="-78" width="139" height="139" as="geometry" />
        </mxCell>
        <mxCell id="ZZ5o5wnqqSk5ztr6BBlJ-8" value="&lt;font style=&quot;font-size: 17px;&quot;&gt;I am the place to run the workloads. &lt;b&gt;Organized &lt;/b&gt;with Plaform and Application &lt;b&gt;Landing Zones&lt;/b&gt;.&lt;/font&gt;" style="shape=callout;whiteSpace=wrap;html=1;perimeter=calloutPerimeter;fontFamily=Architects Daughter;fontSource=https%3A%2F%2Ffonts.googleapis.com%2Fcss%3Ffamily%3DArchitects%2BDaughter;" parent="1" vertex="1">
          <mxGeometry x="90" y="42" width="226.4" height="138" as="geometry" />
        </mxCell>
        <mxCell id="ZZ5o5wnqqSk5ztr6BBlJ-9" value="&lt;font style=&quot;font-size: 17px;&quot;&gt;We provide a place to store all and any type of &lt;b&gt;code&lt;/b&gt;, organize all the work with a &lt;b&gt;backlog &lt;/b&gt;and &lt;b&gt;pipeline runtime&lt;/b&gt; for all &lt;b&gt;Landing Zones&lt;/b&gt;&lt;/font&gt;" style="shape=callout;whiteSpace=wrap;html=1;perimeter=calloutPerimeter;fontFamily=Architects Daughter;fontSource=https%3A%2F%2Ffonts.googleapis.com%2Fcss%3Ffamily%3DArchitects%2BDaughter;" parent="1" vertex="1">
          <mxGeometry x="378" y="-224" width="245" height="138" as="geometry" />
        </mxCell>
        <mxCell id="ZZ5o5wnqqSk5ztr6BBlJ-10" value="&lt;font style=&quot;font-size: 17px;&quot;&gt;I provide, &lt;b&gt;identities and access&lt;/b&gt; to everything part of this &lt;b&gt;Lading Zone&lt;/b&gt;&lt;/font&gt;" style="shape=callout;whiteSpace=wrap;html=1;perimeter=calloutPerimeter;fontFamily=Architects Daughter;fontSource=https%3A%2F%2Ffonts.googleapis.com%2Fcss%3Ffamily%3DArchitects%2BDaughter;" parent="1" vertex="1">
          <mxGeometry x="-178.5" y="-224" width="245" height="138" as="geometry" />
        </mxCell>
        <mxCell id="ZZ5o5wnqqSk5ztr6BBlJ-11" value="&lt;font style=&quot;font-size: 24px;&quot;&gt;Cloud Landing Zone&lt;/font&gt;" style="rounded=0;whiteSpace=wrap;html=1;fontFamily=Architects Daughter;fontSource=https%3A%2F%2Ffonts.googleapis.com%2Fcss%3Ffamily%3DArchitects%2BDaughter;verticalAlign=top;fillColor=#b0e3e6;strokeColor=#0e8088;" parent="1" vertex="1">
          <mxGeometry x="-214" y="485" width="885" height="545" as="geometry" />
        </mxCell>
        <mxCell id="ZZ5o5wnqqSk5ztr6BBlJ-19" value="&lt;font style=&quot;font-size: 24px;&quot;&gt;Platform Landing Zones&lt;br&gt;&lt;/font&gt;&lt;div&gt;&lt;font style=&quot;font-size: 24px;&quot;&gt;&lt;br&gt;&lt;/font&gt;&lt;/div&gt;&lt;div&gt;&lt;font style=&quot;font-size: 24px;&quot;&gt;3 Types:&lt;/font&gt;&lt;/div&gt;&lt;div&gt;&lt;font style=&quot;font-size: 24px;&quot;&gt;&lt;br&gt;&lt;/font&gt;&lt;/div&gt;&lt;div style=&quot;text-align: left;&quot;&gt;&lt;span style=&quot;font-size: 24px; background-color: initial;&quot;&gt;1. Identity&lt;/span&gt;&lt;br&gt;&lt;span style=&quot;font-size: 24px; background-color: initial;&quot;&gt;2. Management&lt;/span&gt;&lt;br&gt;&lt;span style=&quot;font-size: 24px; background-color: initial;&quot;&gt;3. Networking&lt;/span&gt;&lt;br&gt;&lt;/div&gt;" style="rounded=0;whiteSpace=wrap;html=1;fontFamily=Architects Daughter;fontSource=https%3A%2F%2Ffonts.googleapis.com%2Fcss%3Ffamily%3DArchitects%2BDaughter;verticalAlign=top;fillColor=#d0cee2;strokeColor=#56517e;" parent="1" vertex="1">
          <mxGeometry x="-190" y="754" width="398" height="250" as="geometry" />
        </mxCell>
        <mxCell id="ZZ5o5wnqqSk5ztr6BBlJ-20" value="&lt;font style=&quot;font-size: 24px;&quot;&gt;Application Landing Zones&lt;br&gt;&lt;br&gt;&lt;br&gt;Types are unique to your Organization and it&#39;s business, security and compliance needs.&amp;nbsp;&lt;/font&gt;" style="rounded=0;whiteSpace=wrap;html=1;fontFamily=Architects Daughter;fontSource=https%3A%2F%2Ffonts.googleapis.com%2Fcss%3Ffamily%3DArchitects%2BDaughter;verticalAlign=top;fillColor=#b1ddf0;strokeColor=#10739e;" parent="1" vertex="1">
          <mxGeometry x="241" y="753" width="407" height="251" as="geometry" />
        </mxCell>
        <mxCell id="ZZ5o5wnqqSk5ztr6BBlJ-22" value="&lt;font style=&quot;font-size: 24px;&quot;&gt;Cloud Landing Zone&lt;/font&gt;" style="rounded=0;whiteSpace=wrap;html=1;fontFamily=Architects Daughter;fontSource=https%3A%2F%2Ffonts.googleapis.com%2Fcss%3Ffamily%3DArchitects%2BDaughter;verticalAlign=top;fillColor=#b0e3e6;strokeColor=#0e8088;" parent="1" vertex="1">
          <mxGeometry x="2029" y="1094" width="892" height="973" as="geometry" />
        </mxCell>
        <mxCell id="ZZ5o5wnqqSk5ztr6BBlJ-23" value="&lt;font style=&quot;font-size: 24px;&quot;&gt;Platform Landing Zones&lt;br&gt;&lt;br&gt;&lt;/font&gt;&lt;div&gt;&lt;font style=&quot;font-size: 24px;&quot;&gt;&lt;br&gt;&lt;/font&gt;&lt;/div&gt;&lt;div&gt;&lt;br&gt;&lt;/div&gt;" style="rounded=0;whiteSpace=wrap;html=1;fontFamily=Architects Daughter;fontSource=https%3A%2F%2Ffonts.googleapis.com%2Fcss%3Ffamily%3DArchitects%2BDaughter;verticalAlign=top;fillColor=#d0cee2;strokeColor=#56517e;" parent="1" vertex="1">
          <mxGeometry x="2052" y="1817" width="846" height="219" as="geometry" />
        </mxCell>
        <mxCell id="ZZ5o5wnqqSk5ztr6BBlJ-24" value="&lt;font style=&quot;font-size: 24px;&quot;&gt;Application Landing Zones&lt;br&gt;&lt;br&gt;&amp;nbsp;&lt;/font&gt;" style="rounded=0;whiteSpace=wrap;html=1;fontFamily=Architects Daughter;fontSource=https%3A%2F%2Ffonts.googleapis.com%2Fcss%3Ffamily%3DArchitects%2BDaughter;verticalAlign=top;fillColor=#b1ddf0;strokeColor=#10739e;" parent="1" vertex="1">
          <mxGeometry x="2053" y="1190" width="845" height="605" as="geometry" />
        </mxCell>
        <mxCell id="ZZ5o5wnqqSk5ztr6BBlJ-29" value="&lt;font style=&quot;font-size: 24px;&quot;&gt;Identity&lt;/font&gt;" style="rounded=0;whiteSpace=wrap;html=1;fontFamily=Architects Daughter;fontSource=https%3A%2F%2Ffonts.googleapis.com%2Fcss%3Ffamily%3DArchitects%2BDaughter;fillColor=#fff2cc;strokeColor=#d6b656;" parent="1" vertex="1">
          <mxGeometry x="2114" y="1857" width="730" height="49.5" as="geometry" />
        </mxCell>
        <mxCell id="ZZ5o5wnqqSk5ztr6BBlJ-34" value="&lt;font style=&quot;font-size: 24px;&quot;&gt;Application Landing Zones - Data&lt;br&gt;&lt;/font&gt;" style="rounded=0;whiteSpace=wrap;html=1;fontFamily=Architects Daughter;fontSource=https%3A%2F%2Ffonts.googleapis.com%2Fcss%3Ffamily%3DArchitects%2BDaughter;verticalAlign=top;fillColor=#bac8d3;strokeColor=#23445d;" parent="1" vertex="1">
          <mxGeometry x="2118" y="1246" width="727" height="175" as="geometry" />
        </mxCell>
        <mxCell id="ZZ5o5wnqqSk5ztr6BBlJ-35" value="&lt;font style=&quot;font-size: 24px;&quot;&gt;Application Landing Zone - Online&lt;br&gt;&lt;/font&gt;" style="rounded=0;whiteSpace=wrap;html=1;fontFamily=Architects Daughter;fontSource=https%3A%2F%2Ffonts.googleapis.com%2Fcss%3Ffamily%3DArchitects%2BDaughter;verticalAlign=top;fillColor=#fad9d5;strokeColor=#ae4132;" parent="1" vertex="1">
          <mxGeometry x="2118" y="1433" width="727" height="170" as="geometry" />
        </mxCell>
        <mxCell id="ZZ5o5wnqqSk5ztr6BBlJ-36" value="&lt;font style=&quot;font-size: 24px;&quot;&gt;Application Landing Zone - Corp&lt;br&gt;&lt;/font&gt;" style="rounded=0;whiteSpace=wrap;html=1;fontFamily=Architects Daughter;fontSource=https%3A%2F%2Ffonts.googleapis.com%2Fcss%3Ffamily%3DArchitects%2BDaughter;verticalAlign=top;fillColor=#cdeb8b;strokeColor=#36393d;" parent="1" vertex="1">
          <mxGeometry x="2118" y="1617" width="726" height="168" as="geometry" />
        </mxCell>
        <mxCell id="ZZ5o5wnqqSk5ztr6BBlJ-43" value="&lt;font style=&quot;font-size: 24px;&quot;&gt;Cloud Landing Zone&lt;/font&gt;" style="rounded=0;whiteSpace=wrap;html=1;fontFamily=Architects Daughter;fontSource=https%3A%2F%2Ffonts.googleapis.com%2Fcss%3Ffamily%3DArchitects%2BDaughter;verticalAlign=top;" parent="1" vertex="1">
          <mxGeometry x="818" y="3407" width="892" height="973" as="geometry" />
        </mxCell>
        <mxCell id="ZZ5o5wnqqSk5ztr6BBlJ-44" value="&lt;font style=&quot;font-size: 24px;&quot;&gt;Platform Landing Zones&lt;br&gt;&lt;br&gt;&lt;/font&gt;&lt;div&gt;&lt;font style=&quot;font-size: 24px;&quot;&gt;&lt;br&gt;&lt;/font&gt;&lt;/div&gt;&lt;div&gt;&lt;br&gt;&lt;/div&gt;" style="rounded=0;whiteSpace=wrap;html=1;fontFamily=Architects Daughter;fontSource=https%3A%2F%2Ffonts.googleapis.com%2Fcss%3Ffamily%3DArchitects%2BDaughter;verticalAlign=top;" parent="1" vertex="1">
          <mxGeometry x="841" y="4150" width="846" height="210" as="geometry" />
        </mxCell>
        <mxCell id="ZZ5o5wnqqSk5ztr6BBlJ-45" value="&lt;font style=&quot;font-size: 24px;&quot;&gt;Application Landing Zones&lt;br&gt;&lt;br&gt;&amp;nbsp;&lt;/font&gt;" style="rounded=0;whiteSpace=wrap;html=1;fontFamily=Architects Daughter;fontSource=https%3A%2F%2Ffonts.googleapis.com%2Fcss%3Ffamily%3DArchitects%2BDaughter;verticalAlign=top;" parent="1" vertex="1">
          <mxGeometry x="842" y="3523" width="845" height="605" as="geometry" />
        </mxCell>
        <mxCell id="ZZ5o5wnqqSk5ztr6BBlJ-46" value="&lt;font style=&quot;font-size: 24px;&quot;&gt;Management&lt;/font&gt;" style="rounded=0;whiteSpace=wrap;html=1;fontFamily=Architects Daughter;fontSource=https%3A%2F%2Ffonts.googleapis.com%2Fcss%3Ffamily%3DArchitects%2BDaughter;" parent="1" vertex="1">
          <mxGeometry x="1425" y="4217" width="167" height="71" as="geometry" />
        </mxCell>
        <mxCell id="ZZ5o5wnqqSk5ztr6BBlJ-47" value="&lt;font style=&quot;font-size: 24px;&quot;&gt;Identity&lt;/font&gt;" style="rounded=0;whiteSpace=wrap;html=1;fontFamily=Architects Daughter;fontSource=https%3A%2F%2Ffonts.googleapis.com%2Fcss%3Ffamily%3DArchitects%2BDaughter;" parent="1" vertex="1">
          <mxGeometry x="915" y="4217" width="167" height="71" as="geometry" />
        </mxCell>
        <mxCell id="ZZ5o5wnqqSk5ztr6BBlJ-48" value="&lt;font style=&quot;font-size: 24px;&quot;&gt;Networking&lt;/font&gt;" style="rounded=0;whiteSpace=wrap;html=1;fontFamily=Architects Daughter;fontSource=https%3A%2F%2Ffonts.googleapis.com%2Fcss%3Ffamily%3DArchitects%2BDaughter;" parent="1" vertex="1">
          <mxGeometry x="1154.6" y="4219.5" width="167" height="71" as="geometry" />
        </mxCell>
        <mxCell id="ZZ5o5wnqqSk5ztr6BBlJ-49" value="&lt;font style=&quot;font-size: 24px;&quot;&gt;Application Landing Zones - Data&lt;br&gt;&lt;/font&gt;" style="rounded=0;whiteSpace=wrap;html=1;fontFamily=Architects Daughter;fontSource=https%3A%2F%2Ffonts.googleapis.com%2Fcss%3Ffamily%3DArchitects%2BDaughter;verticalAlign=top;" parent="1" vertex="1">
          <mxGeometry x="852" y="3579" width="824" height="175" as="geometry" />
        </mxCell>
        <mxCell id="ZZ5o5wnqqSk5ztr6BBlJ-50" value="&lt;font style=&quot;font-size: 24px;&quot;&gt;Application Landing Zone - Online&lt;br&gt;&lt;/font&gt;" style="rounded=0;whiteSpace=wrap;html=1;fontFamily=Architects Daughter;fontSource=https%3A%2F%2Ffonts.googleapis.com%2Fcss%3Ffamily%3DArchitects%2BDaughter;verticalAlign=top;" parent="1" vertex="1">
          <mxGeometry x="852.5" y="3766" width="824" height="170" as="geometry" />
        </mxCell>
        <mxCell id="ZZ5o5wnqqSk5ztr6BBlJ-51" value="&lt;font style=&quot;font-size: 24px;&quot;&gt;Application Landing Zone - Corp&lt;br&gt;&lt;/font&gt;" style="rounded=0;whiteSpace=wrap;html=1;fontFamily=Architects Daughter;fontSource=https%3A%2F%2Ffonts.googleapis.com%2Fcss%3Ffamily%3DArchitects%2BDaughter;verticalAlign=top;" parent="1" vertex="1">
          <mxGeometry x="852" y="3950" width="824" height="168" as="geometry" />
        </mxCell>
        <mxCell id="ZZ5o5wnqqSk5ztr6BBlJ-52" value="&lt;font style=&quot;font-size: 24px;&quot;&gt;Application A&lt;/font&gt;" style="rounded=0;whiteSpace=wrap;html=1;fontFamily=Architects Daughter;fontSource=https%3A%2F%2Ffonts.googleapis.com%2Fcss%3Ffamily%3DArchitects%2BDaughter;" parent="1" vertex="1">
          <mxGeometry x="882" y="3641" width="167" height="71" as="geometry" />
        </mxCell>
        <mxCell id="ZZ5o5wnqqSk5ztr6BBlJ-53" value="&lt;font style=&quot;font-size: 24px;&quot;&gt;Application B&lt;/font&gt;" style="rounded=0;whiteSpace=wrap;html=1;fontFamily=Architects Daughter;fontSource=https%3A%2F%2Ffonts.googleapis.com%2Fcss%3Ffamily%3DArchitects%2BDaughter;" parent="1" vertex="1">
          <mxGeometry x="903" y="3831" width="167" height="71" as="geometry" />
        </mxCell>
        <mxCell id="ZZ5o5wnqqSk5ztr6BBlJ-54" value="&lt;font style=&quot;font-size: 24px;&quot;&gt;Application C&lt;/font&gt;" style="rounded=0;whiteSpace=wrap;html=1;fontFamily=Architects Daughter;fontSource=https%3A%2F%2Ffonts.googleapis.com%2Fcss%3Ffamily%3DArchitects%2BDaughter;" parent="1" vertex="1">
          <mxGeometry x="1102" y="3831" width="167" height="71" as="geometry" />
        </mxCell>
        <mxCell id="ZZ5o5wnqqSk5ztr6BBlJ-55" value="&lt;font style=&quot;font-size: 24px;&quot;&gt;Application D&lt;/font&gt;" style="rounded=0;whiteSpace=wrap;html=1;fontFamily=Architects Daughter;fontSource=https%3A%2F%2Ffonts.googleapis.com%2Fcss%3Ffamily%3DArchitects%2BDaughter;" parent="1" vertex="1">
          <mxGeometry x="1071" y="3643" width="167" height="71" as="geometry" />
        </mxCell>
        <mxCell id="ZZ5o5wnqqSk5ztr6BBlJ-56" value="&lt;font style=&quot;font-size: 24px;&quot;&gt;Application X&lt;/font&gt;" style="rounded=0;whiteSpace=wrap;html=1;fontFamily=Architects Daughter;fontSource=https%3A%2F%2Ffonts.googleapis.com%2Fcss%3Ffamily%3DArchitects%2BDaughter;" parent="1" vertex="1">
          <mxGeometry x="1037" y="4016" width="167" height="71" as="geometry" />
        </mxCell>
        <mxCell id="ZZ5o5wnqqSk5ztr6BBlJ-57" value="&lt;font style=&quot;font-size: 24px;&quot;&gt;Application Y&lt;/font&gt;" style="rounded=0;whiteSpace=wrap;html=1;fontFamily=Architects Daughter;fontSource=https%3A%2F%2Ffonts.googleapis.com%2Fcss%3Ffamily%3DArchitects%2BDaughter;" parent="1" vertex="1">
          <mxGeometry x="1309" y="4016" width="167" height="71" as="geometry" />
        </mxCell>
        <mxCell id="ZZ5o5wnqqSk5ztr6BBlJ-58" value="&lt;font style=&quot;font-size: 24px;&quot;&gt;Application E&lt;/font&gt;" style="rounded=0;whiteSpace=wrap;html=1;fontFamily=Architects Daughter;fontSource=https%3A%2F%2Ffonts.googleapis.com%2Fcss%3Ffamily%3DArchitects%2BDaughter;" parent="1" vertex="1">
          <mxGeometry x="1264" y="3643" width="167" height="71" as="geometry" />
        </mxCell>
        <mxCell id="ZZ5o5wnqqSk5ztr6BBlJ-59" value="&lt;font style=&quot;font-size: 24px;&quot;&gt;Application F&lt;/font&gt;" style="rounded=0;whiteSpace=wrap;html=1;fontFamily=Architects Daughter;fontSource=https%3A%2F%2Ffonts.googleapis.com%2Fcss%3Ffamily%3DArchitects%2BDaughter;" parent="1" vertex="1">
          <mxGeometry x="1457" y="3646" width="167" height="71" as="geometry" />
        </mxCell>
        <mxCell id="ZZ5o5wnqqSk5ztr6BBlJ-60" value="&lt;font style=&quot;font-size: 24px;&quot;&gt;Application G&lt;/font&gt;" style="rounded=0;whiteSpace=wrap;html=1;fontFamily=Architects Daughter;fontSource=https%3A%2F%2Ffonts.googleapis.com%2Fcss%3Ffamily%3DArchitects%2BDaughter;" parent="1" vertex="1">
          <mxGeometry x="1315" y="3825" width="167" height="71" as="geometry" />
        </mxCell>
        <mxCell id="ZZ5o5wnqqSk5ztr6BBlJ-61" value="&lt;font style=&quot;font-size: 24px;&quot;&gt;Cloud Landing Zone&lt;/font&gt;" style="rounded=0;whiteSpace=wrap;html=1;fontFamily=Architects Daughter;fontSource=https%3A%2F%2Ffonts.googleapis.com%2Fcss%3Ffamily%3DArchitects%2BDaughter;verticalAlign=top;" parent="1" vertex="1">
          <mxGeometry x="-166" y="3407" width="892" height="973" as="geometry" />
        </mxCell>
        <mxCell id="ZZ5o5wnqqSk5ztr6BBlJ-62" value="&lt;font style=&quot;font-size: 24px;&quot;&gt;Platform Landing Zones&lt;br&gt;&lt;br&gt;&lt;/font&gt;&lt;div&gt;&lt;font style=&quot;font-size: 24px;&quot;&gt;&lt;br&gt;&lt;/font&gt;&lt;/div&gt;&lt;div&gt;&lt;br&gt;&lt;/div&gt;" style="rounded=0;whiteSpace=wrap;html=1;fontFamily=Architects Daughter;fontSource=https%3A%2F%2Ffonts.googleapis.com%2Fcss%3Ffamily%3DArchitects%2BDaughter;verticalAlign=top;" parent="1" vertex="1">
          <mxGeometry x="-143" y="4150" width="846" height="210" as="geometry" />
        </mxCell>
        <mxCell id="ZZ5o5wnqqSk5ztr6BBlJ-63" value="&lt;font style=&quot;font-size: 24px;&quot;&gt;Application Landing Zones&lt;br&gt;&lt;br&gt;&amp;nbsp;&lt;/font&gt;" style="rounded=0;whiteSpace=wrap;html=1;fontFamily=Architects Daughter;fontSource=https%3A%2F%2Ffonts.googleapis.com%2Fcss%3Ffamily%3DArchitects%2BDaughter;verticalAlign=top;" parent="1" vertex="1">
          <mxGeometry x="-142" y="3523" width="845" height="605" as="geometry" />
        </mxCell>
        <mxCell id="ZZ5o5wnqqSk5ztr6BBlJ-64" value="&lt;font style=&quot;font-size: 24px;&quot;&gt;Management&lt;/font&gt;" style="rounded=0;whiteSpace=wrap;html=1;fontFamily=Architects Daughter;fontSource=https%3A%2F%2Ffonts.googleapis.com%2Fcss%3Ffamily%3DArchitects%2BDaughter;" parent="1" vertex="1">
          <mxGeometry x="441" y="4217" width="167" height="71" as="geometry" />
        </mxCell>
        <mxCell id="ZZ5o5wnqqSk5ztr6BBlJ-65" value="&lt;font style=&quot;font-size: 24px;&quot;&gt;Identity&lt;/font&gt;" style="rounded=0;whiteSpace=wrap;html=1;fontFamily=Architects Daughter;fontSource=https%3A%2F%2Ffonts.googleapis.com%2Fcss%3Ffamily%3DArchitects%2BDaughter;" parent="1" vertex="1">
          <mxGeometry x="-69" y="4217" width="167" height="71" as="geometry" />
        </mxCell>
        <mxCell id="ZZ5o5wnqqSk5ztr6BBlJ-66" value="&lt;font style=&quot;font-size: 24px;&quot;&gt;Networking&lt;/font&gt;" style="rounded=0;whiteSpace=wrap;html=1;fontFamily=Architects Daughter;fontSource=https%3A%2F%2Ffonts.googleapis.com%2Fcss%3Ffamily%3DArchitects%2BDaughter;" parent="1" vertex="1">
          <mxGeometry x="170.60000000000002" y="4219.5" width="167" height="71" as="geometry" />
        </mxCell>
        <mxCell id="ZZ5o5wnqqSk5ztr6BBlJ-67" value="&lt;font style=&quot;font-size: 24px;&quot;&gt;Application Landing Zones - Data&lt;br&gt;&lt;/font&gt;" style="rounded=0;whiteSpace=wrap;html=1;fontFamily=Architects Daughter;fontSource=https%3A%2F%2Ffonts.googleapis.com%2Fcss%3Ffamily%3DArchitects%2BDaughter;verticalAlign=top;" parent="1" vertex="1">
          <mxGeometry x="-132" y="3579" width="824" height="175" as="geometry" />
        </mxCell>
        <mxCell id="ZZ5o5wnqqSk5ztr6BBlJ-68" value="&lt;font style=&quot;font-size: 24px;&quot;&gt;Application Landing Zone - Online&lt;br&gt;&lt;/font&gt;" style="rounded=0;whiteSpace=wrap;html=1;fontFamily=Architects Daughter;fontSource=https%3A%2F%2Ffonts.googleapis.com%2Fcss%3Ffamily%3DArchitects%2BDaughter;verticalAlign=top;" parent="1" vertex="1">
          <mxGeometry x="-131.5" y="3766" width="824" height="170" as="geometry" />
        </mxCell>
        <mxCell id="ZZ5o5wnqqSk5ztr6BBlJ-69" value="&lt;font style=&quot;font-size: 24px;&quot;&gt;Application Landing Zone - Corp&lt;br&gt;&lt;/font&gt;" style="rounded=0;whiteSpace=wrap;html=1;fontFamily=Architects Daughter;fontSource=https%3A%2F%2Ffonts.googleapis.com%2Fcss%3Ffamily%3DArchitects%2BDaughter;verticalAlign=top;" parent="1" vertex="1">
          <mxGeometry x="-132" y="3950" width="824" height="168" as="geometry" />
        </mxCell>
        <mxCell id="ZZ5o5wnqqSk5ztr6BBlJ-70" value="&lt;font style=&quot;font-size: 24px;&quot;&gt;Application A&lt;/font&gt;" style="rounded=0;whiteSpace=wrap;html=1;fontFamily=Architects Daughter;fontSource=https%3A%2F%2Ffonts.googleapis.com%2Fcss%3Ffamily%3DArchitects%2BDaughter;" parent="1" vertex="1">
          <mxGeometry x="-102" y="3641" width="167" height="71" as="geometry" />
        </mxCell>
        <mxCell id="ZZ5o5wnqqSk5ztr6BBlJ-71" value="&lt;font style=&quot;font-size: 24px;&quot;&gt;Application B&lt;/font&gt;" style="rounded=0;whiteSpace=wrap;html=1;fontFamily=Architects Daughter;fontSource=https%3A%2F%2Ffonts.googleapis.com%2Fcss%3Ffamily%3DArchitects%2BDaughter;" parent="1" vertex="1">
          <mxGeometry x="-81" y="3831" width="167" height="71" as="geometry" />
        </mxCell>
        <mxCell id="ZZ5o5wnqqSk5ztr6BBlJ-72" value="&lt;font style=&quot;font-size: 24px;&quot;&gt;Application C&lt;/font&gt;" style="rounded=0;whiteSpace=wrap;html=1;fontFamily=Architects Daughter;fontSource=https%3A%2F%2Ffonts.googleapis.com%2Fcss%3Ffamily%3DArchitects%2BDaughter;" parent="1" vertex="1">
          <mxGeometry x="118.00000000000006" y="3831" width="167" height="71" as="geometry" />
        </mxCell>
        <mxCell id="ZZ5o5wnqqSk5ztr6BBlJ-73" value="&lt;font style=&quot;font-size: 24px;&quot;&gt;Application D&lt;/font&gt;" style="rounded=0;whiteSpace=wrap;html=1;fontFamily=Architects Daughter;fontSource=https%3A%2F%2Ffonts.googleapis.com%2Fcss%3Ffamily%3DArchitects%2BDaughter;" parent="1" vertex="1">
          <mxGeometry x="87.00000000000004" y="3643" width="167" height="71" as="geometry" />
        </mxCell>
        <mxCell id="ZZ5o5wnqqSk5ztr6BBlJ-74" value="&lt;font style=&quot;font-size: 24px;&quot;&gt;Application X&lt;/font&gt;" style="rounded=0;whiteSpace=wrap;html=1;fontFamily=Architects Daughter;fontSource=https%3A%2F%2Ffonts.googleapis.com%2Fcss%3Ffamily%3DArchitects%2BDaughter;" parent="1" vertex="1">
          <mxGeometry x="53.00000000000006" y="4016" width="167" height="71" as="geometry" />
        </mxCell>
        <mxCell id="ZZ5o5wnqqSk5ztr6BBlJ-75" value="&lt;font style=&quot;font-size: 24px;&quot;&gt;Application Y&lt;/font&gt;" style="rounded=0;whiteSpace=wrap;html=1;fontFamily=Architects Daughter;fontSource=https%3A%2F%2Ffonts.googleapis.com%2Fcss%3Ffamily%3DArchitects%2BDaughter;" parent="1" vertex="1">
          <mxGeometry x="325.00000000000006" y="4016" width="167" height="71" as="geometry" />
        </mxCell>
        <mxCell id="ZZ5o5wnqqSk5ztr6BBlJ-76" value="&lt;font style=&quot;font-size: 24px;&quot;&gt;Application E&lt;/font&gt;" style="rounded=0;whiteSpace=wrap;html=1;fontFamily=Architects Daughter;fontSource=https%3A%2F%2Ffonts.googleapis.com%2Fcss%3Ffamily%3DArchitects%2BDaughter;" parent="1" vertex="1">
          <mxGeometry x="280.00000000000006" y="3643" width="167" height="71" as="geometry" />
        </mxCell>
        <mxCell id="ZZ5o5wnqqSk5ztr6BBlJ-77" value="&lt;font style=&quot;font-size: 24px;&quot;&gt;Application F&lt;/font&gt;" style="rounded=0;whiteSpace=wrap;html=1;fontFamily=Architects Daughter;fontSource=https%3A%2F%2Ffonts.googleapis.com%2Fcss%3Ffamily%3DArchitects%2BDaughter;" parent="1" vertex="1">
          <mxGeometry x="473.00000000000006" y="3646" width="167" height="71" as="geometry" />
        </mxCell>
        <mxCell id="ZZ5o5wnqqSk5ztr6BBlJ-78" value="&lt;font style=&quot;font-size: 24px;&quot;&gt;Application G&lt;/font&gt;" style="rounded=0;whiteSpace=wrap;html=1;fontFamily=Architects Daughter;fontSource=https%3A%2F%2Ffonts.googleapis.com%2Fcss%3Ffamily%3DArchitects%2BDaughter;" parent="1" vertex="1">
          <mxGeometry x="331.00000000000006" y="3825" width="167" height="71" as="geometry" />
        </mxCell>
        <mxCell id="ZZ5o5wnqqSk5ztr6BBlJ-82" value="&lt;span style=&quot;font-size: 24px;&quot;&gt;Management&lt;/span&gt;" style="rounded=0;whiteSpace=wrap;html=1;fontFamily=Architects Daughter;fontSource=https%3A%2F%2Ffonts.googleapis.com%2Fcss%3Ffamily%3DArchitects%2BDaughter;fillColor=#fff2cc;strokeColor=#d6b656;" parent="1" vertex="1">
          <mxGeometry x="2114" y="1914" width="730" height="49.5" as="geometry" />
        </mxCell>
        <mxCell id="ZZ5o5wnqqSk5ztr6BBlJ-83" value="&lt;font style=&quot;font-size: 24px;&quot;&gt;Networking&lt;/font&gt;" style="rounded=0;whiteSpace=wrap;html=1;fontFamily=Architects Daughter;fontSource=https%3A%2F%2Ffonts.googleapis.com%2Fcss%3Ffamily%3DArchitects%2BDaughter;fillColor=#fff2cc;strokeColor=#d6b656;" parent="1" vertex="1">
          <mxGeometry x="2114" y="1970" width="730" height="49.5" as="geometry" />
        </mxCell>
        <mxCell id="ZZ5o5wnqqSk5ztr6BBlJ-165" value="&lt;font style=&quot;font-size: 24px;&quot;&gt;Cloud Landing Zone&lt;/font&gt;" style="rounded=0;whiteSpace=wrap;html=1;fontFamily=Architects Daughter;fontSource=https%3A%2F%2Ffonts.googleapis.com%2Fcss%3Ffamily%3DArchitects%2BDaughter;verticalAlign=top;fillColor=#b0e3e6;strokeColor=#0e8088;" parent="1" vertex="1">
          <mxGeometry x="2403" y="3282" width="892" height="973" as="geometry" />
        </mxCell>
        <mxCell id="ZZ5o5wnqqSk5ztr6BBlJ-166" value="&lt;font style=&quot;font-size: 24px;&quot;&gt;Platform Landing Zones&lt;br&gt;&lt;br&gt;&lt;/font&gt;&lt;div&gt;&lt;font style=&quot;font-size: 24px;&quot;&gt;&lt;br&gt;&lt;/font&gt;&lt;/div&gt;&lt;div&gt;&lt;br&gt;&lt;/div&gt;" style="rounded=0;whiteSpace=wrap;html=1;fontFamily=Architects Daughter;fontSource=https%3A%2F%2Ffonts.googleapis.com%2Fcss%3Ffamily%3DArchitects%2BDaughter;verticalAlign=top;fillColor=#d0cee2;strokeColor=#56517e;" parent="1" vertex="1">
          <mxGeometry x="2426" y="4025" width="846" height="210" as="geometry" />
        </mxCell>
        <mxCell id="ZZ5o5wnqqSk5ztr6BBlJ-167" value="&lt;font style=&quot;font-size: 24px;&quot;&gt;Application Landing Zones&lt;br&gt;&lt;br&gt;&amp;nbsp;&lt;/font&gt;" style="rounded=0;whiteSpace=wrap;html=1;fontFamily=Architects Daughter;fontSource=https%3A%2F%2Ffonts.googleapis.com%2Fcss%3Ffamily%3DArchitects%2BDaughter;verticalAlign=top;fillColor=#b1ddf0;strokeColor=#10739e;" parent="1" vertex="1">
          <mxGeometry x="2427" y="3398" width="845" height="605" as="geometry" />
        </mxCell>
        <mxCell id="ZZ5o5wnqqSk5ztr6BBlJ-168" value="&lt;font style=&quot;font-size: 24px;&quot;&gt;Identity&lt;/font&gt;" style="rounded=0;whiteSpace=wrap;html=1;fontFamily=Architects Daughter;fontSource=https%3A%2F%2Ffonts.googleapis.com%2Fcss%3Ffamily%3DArchitects%2BDaughter;" parent="1" vertex="1">
          <mxGeometry x="2518" y="4065" width="730" height="49.5" as="geometry" />
        </mxCell>
        <mxCell id="ZZ5o5wnqqSk5ztr6BBlJ-169" value="&lt;font style=&quot;font-size: 24px;&quot;&gt;Application Landing Zones - Data&lt;br&gt;&lt;/font&gt;" style="rounded=0;whiteSpace=wrap;html=1;fontFamily=Architects Daughter;fontSource=https%3A%2F%2Ffonts.googleapis.com%2Fcss%3Ffamily%3DArchitects%2BDaughter;verticalAlign=top;fillColor=#bac8d3;strokeColor=#23445d;" parent="1" vertex="1">
          <mxGeometry x="2522" y="3454" width="727" height="175" as="geometry" />
        </mxCell>
        <mxCell id="ZZ5o5wnqqSk5ztr6BBlJ-170" value="&lt;font style=&quot;font-size: 24px;&quot;&gt;Application Landing Zone - Online&lt;br&gt;&lt;/font&gt;" style="rounded=0;whiteSpace=wrap;html=1;fontFamily=Architects Daughter;fontSource=https%3A%2F%2Ffonts.googleapis.com%2Fcss%3Ffamily%3DArchitects%2BDaughter;verticalAlign=top;fillColor=#fad9d5;strokeColor=#ae4132;" parent="1" vertex="1">
          <mxGeometry x="2522" y="3641" width="727" height="170" as="geometry" />
        </mxCell>
        <mxCell id="ZZ5o5wnqqSk5ztr6BBlJ-171" value="&lt;font style=&quot;font-size: 24px;&quot;&gt;Application Landing Zone - Corp&lt;br&gt;&lt;/font&gt;" style="rounded=0;whiteSpace=wrap;html=1;fontFamily=Architects Daughter;fontSource=https%3A%2F%2Ffonts.googleapis.com%2Fcss%3Ffamily%3DArchitects%2BDaughter;verticalAlign=top;fillColor=#cdeb8b;strokeColor=#36393d;" parent="1" vertex="1">
          <mxGeometry x="2522" y="3825" width="726" height="168" as="geometry" />
        </mxCell>
        <mxCell id="ZZ5o5wnqqSk5ztr6BBlJ-172" value="&lt;font style=&quot;font-size: 24px;&quot;&gt;Application A&lt;/font&gt;" style="rounded=0;whiteSpace=wrap;html=1;fontFamily=Architects Daughter;fontSource=https%3A%2F%2Ffonts.googleapis.com%2Fcss%3Ffamily%3DArchitects%2BDaughter;" parent="1" vertex="1">
          <mxGeometry x="2536" y="3516" width="167" height="71" as="geometry" />
        </mxCell>
        <mxCell id="ZZ5o5wnqqSk5ztr6BBlJ-173" value="&lt;font style=&quot;font-size: 24px;&quot;&gt;Application B&lt;/font&gt;" style="rounded=0;whiteSpace=wrap;html=1;fontFamily=Architects Daughter;fontSource=https%3A%2F%2Ffonts.googleapis.com%2Fcss%3Ffamily%3DArchitects%2BDaughter;" parent="1" vertex="1">
          <mxGeometry x="2625" y="3700" width="167" height="71" as="geometry" />
        </mxCell>
        <mxCell id="ZZ5o5wnqqSk5ztr6BBlJ-174" value="&lt;font style=&quot;font-size: 24px;&quot;&gt;Application C&lt;/font&gt;" style="rounded=0;whiteSpace=wrap;html=1;fontFamily=Architects Daughter;fontSource=https%3A%2F%2Ffonts.googleapis.com%2Fcss%3Ffamily%3DArchitects%2BDaughter;" parent="1" vertex="1">
          <mxGeometry x="2831" y="3700" width="167" height="71" as="geometry" />
        </mxCell>
        <mxCell id="ZZ5o5wnqqSk5ztr6BBlJ-175" value="&lt;font style=&quot;font-size: 24px;&quot;&gt;Application D&lt;/font&gt;" style="rounded=0;whiteSpace=wrap;html=1;fontFamily=Architects Daughter;fontSource=https%3A%2F%2Ffonts.googleapis.com%2Fcss%3Ffamily%3DArchitects%2BDaughter;" parent="1" vertex="1">
          <mxGeometry x="2714" y="3516" width="167" height="71" as="geometry" />
        </mxCell>
        <mxCell id="ZZ5o5wnqqSk5ztr6BBlJ-176" value="&lt;font style=&quot;font-size: 24px;&quot;&gt;Application X&lt;/font&gt;" style="rounded=0;whiteSpace=wrap;html=1;fontFamily=Architects Daughter;fontSource=https%3A%2F%2Ffonts.googleapis.com%2Fcss%3Ffamily%3DArchitects%2BDaughter;" parent="1" vertex="1">
          <mxGeometry x="2681" y="3891" width="167" height="71" as="geometry" />
        </mxCell>
        <mxCell id="ZZ5o5wnqqSk5ztr6BBlJ-177" value="&lt;font style=&quot;font-size: 24px;&quot;&gt;Application Y&lt;/font&gt;" style="rounded=0;whiteSpace=wrap;html=1;fontFamily=Architects Daughter;fontSource=https%3A%2F%2Ffonts.googleapis.com%2Fcss%3Ffamily%3DArchitects%2BDaughter;" parent="1" vertex="1">
          <mxGeometry x="2953" y="3891" width="167" height="71" as="geometry" />
        </mxCell>
        <mxCell id="ZZ5o5wnqqSk5ztr6BBlJ-178" value="&lt;font style=&quot;font-size: 24px;&quot;&gt;Application E&lt;/font&gt;" style="rounded=0;whiteSpace=wrap;html=1;fontFamily=Architects Daughter;fontSource=https%3A%2F%2Ffonts.googleapis.com%2Fcss%3Ffamily%3DArchitects%2BDaughter;" parent="1" vertex="1">
          <mxGeometry x="2892" y="3516" width="167" height="71" as="geometry" />
        </mxCell>
        <mxCell id="ZZ5o5wnqqSk5ztr6BBlJ-179" value="&lt;font style=&quot;font-size: 24px;&quot;&gt;Application F&lt;/font&gt;" style="rounded=0;whiteSpace=wrap;html=1;fontFamily=Architects Daughter;fontSource=https%3A%2F%2Ffonts.googleapis.com%2Fcss%3Ffamily%3DArchitects%2BDaughter;" parent="1" vertex="1">
          <mxGeometry x="3070" y="3516" width="167" height="71" as="geometry" />
        </mxCell>
        <mxCell id="ZZ5o5wnqqSk5ztr6BBlJ-180" value="&lt;font style=&quot;font-size: 24px;&quot;&gt;Application G&lt;/font&gt;" style="rounded=0;whiteSpace=wrap;html=1;fontFamily=Architects Daughter;fontSource=https%3A%2F%2Ffonts.googleapis.com%2Fcss%3Ffamily%3DArchitects%2BDaughter;" parent="1" vertex="1">
          <mxGeometry x="3037" y="3700" width="167" height="71" as="geometry" />
        </mxCell>
        <mxCell id="ZZ5o5wnqqSk5ztr6BBlJ-181" value="" style="endArrow=none;html=1;rounded=0;fontFamily=Architects Daughter;fontSource=https%3A%2F%2Ffonts.googleapis.com%2Fcss%3Ffamily%3DArchitects%2BDaughter;fontSize=16;startSize=14;endSize=14;sourcePerimeterSpacing=8;targetPerimeterSpacing=8;entryX=0;entryY=0.5;entryDx=0;entryDy=0;exitX=0.057;exitY=0.006;exitDx=0;exitDy=0;exitPerimeter=0;edgeStyle=orthogonalEdgeStyle;strokeWidth=6;strokeColor=#505050;" parent="1" source="ZZ5o5wnqqSk5ztr6BBlJ-166" target="ZZ5o5wnqqSk5ztr6BBlJ-169" edge="1">
          <mxGeometry width="50" height="50" relative="1" as="geometry">
            <mxPoint x="2241" y="3833" as="sourcePoint" />
            <mxPoint x="2291" y="3783" as="targetPoint" />
          </mxGeometry>
        </mxCell>
        <mxCell id="ZZ5o5wnqqSk5ztr6BBlJ-182" value="" style="endArrow=none;html=1;rounded=0;fontFamily=Architects Daughter;fontSource=https%3A%2F%2Ffonts.googleapis.com%2Fcss%3Ffamily%3DArchitects%2BDaughter;fontSize=16;startSize=14;endSize=14;sourcePerimeterSpacing=8;targetPerimeterSpacing=8;entryX=0;entryY=0.5;entryDx=0;entryDy=0;exitX=0.5;exitY=0;exitDx=0;exitDy=0;exitPerimeter=0;edgeStyle=orthogonalEdgeStyle;strokeWidth=6;strokeColor=#505050;" parent="1" source="ZZ5o5wnqqSk5ztr6BBlJ-187" target="ZZ5o5wnqqSk5ztr6BBlJ-170" edge="1">
          <mxGeometry width="50" height="50" relative="1" as="geometry">
            <mxPoint x="2484" y="4033" as="sourcePoint" />
            <mxPoint x="2534" y="3552" as="targetPoint" />
          </mxGeometry>
        </mxCell>
        <mxCell id="ZZ5o5wnqqSk5ztr6BBlJ-183" value="" style="endArrow=none;html=1;rounded=0;fontFamily=Architects Daughter;fontSource=https%3A%2F%2Ffonts.googleapis.com%2Fcss%3Ffamily%3DArchitects%2BDaughter;fontSize=16;startSize=14;endSize=14;sourcePerimeterSpacing=8;targetPerimeterSpacing=8;entryX=0;entryY=0.5;entryDx=0;entryDy=0;exitX=0.5;exitY=0;exitDx=0;exitDy=0;exitPerimeter=0;edgeStyle=orthogonalEdgeStyle;strokeWidth=6;strokeColor=#505050;" parent="1" source="ZZ5o5wnqqSk5ztr6BBlJ-186" target="ZZ5o5wnqqSk5ztr6BBlJ-171" edge="1">
          <mxGeometry width="50" height="50" relative="1" as="geometry">
            <mxPoint x="2484" y="4035" as="sourcePoint" />
            <mxPoint x="2533" y="3736" as="targetPoint" />
          </mxGeometry>
        </mxCell>
        <mxCell id="ZZ5o5wnqqSk5ztr6BBlJ-184" value="&lt;span style=&quot;font-size: 24px;&quot;&gt;Management&lt;/span&gt;" style="rounded=0;whiteSpace=wrap;html=1;fontFamily=Architects Daughter;fontSource=https%3A%2F%2Ffonts.googleapis.com%2Fcss%3Ffamily%3DArchitects%2BDaughter;" parent="1" vertex="1">
          <mxGeometry x="2518" y="4122" width="730" height="49.5" as="geometry" />
        </mxCell>
        <mxCell id="ZZ5o5wnqqSk5ztr6BBlJ-185" value="&lt;font style=&quot;font-size: 24px;&quot;&gt;Networking&lt;/font&gt;" style="rounded=0;whiteSpace=wrap;html=1;fontFamily=Architects Daughter;fontSource=https%3A%2F%2Ffonts.googleapis.com%2Fcss%3Ffamily%3DArchitects%2BDaughter;" parent="1" vertex="1">
          <mxGeometry x="2518" y="4178" width="730" height="49.5" as="geometry" />
        </mxCell>
        <mxCell id="ZZ5o5wnqqSk5ztr6BBlJ-186" value="" style="sketch=0;pointerEvents=1;shadow=0;dashed=0;html=1;strokeColor=none;labelPosition=center;verticalLabelPosition=bottom;verticalAlign=top;align=center;fillColor=#505050;shape=mxgraph.mscae.intune.connector;fontFamily=Architects Daughter;fontSource=https%3A%2F%2Ffonts.googleapis.com%2Fcss%3Ffamily%3DArchitects%2BDaughter;rotation=90;" parent="1" vertex="1">
          <mxGeometry x="2454" y="3900.5" width="50" height="17" as="geometry" />
        </mxCell>
        <mxCell id="ZZ5o5wnqqSk5ztr6BBlJ-187" value="" style="sketch=0;pointerEvents=1;shadow=0;dashed=0;html=1;strokeColor=none;labelPosition=center;verticalLabelPosition=bottom;verticalAlign=top;align=center;fillColor=#505050;shape=mxgraph.mscae.intune.connector;fontFamily=Architects Daughter;fontSource=https%3A%2F%2Ffonts.googleapis.com%2Fcss%3Ffamily%3DArchitects%2BDaughter;rotation=90;" parent="1" vertex="1">
          <mxGeometry x="2454" y="3717.5" width="50" height="17" as="geometry" />
        </mxCell>
        <mxCell id="ZZ5o5wnqqSk5ztr6BBlJ-188" value="" style="sketch=0;pointerEvents=1;shadow=0;dashed=0;html=1;strokeColor=none;labelPosition=center;verticalLabelPosition=bottom;verticalAlign=top;align=center;fillColor=#505050;shape=mxgraph.mscae.intune.connector;fontFamily=Architects Daughter;fontSource=https%3A%2F%2Ffonts.googleapis.com%2Fcss%3Ffamily%3DArchitects%2BDaughter;rotation=90;" parent="1" vertex="1">
          <mxGeometry x="2454" y="3533" width="50" height="17" as="geometry" />
        </mxCell>
        <mxCell id="ZZ5o5wnqqSk5ztr6BBlJ-189" value="" style="endArrow=none;html=1;rounded=0;fontFamily=Architects Daughter;fontSource=https%3A%2F%2Ffonts.googleapis.com%2Fcss%3Ffamily%3DArchitects%2BDaughter;fontSize=16;startSize=14;endSize=14;sourcePerimeterSpacing=8;targetPerimeterSpacing=8;entryX=0.048;entryY=0.769;entryDx=0;entryDy=0;strokeWidth=5;strokeColor=#505050;entryPerimeter=0;dashed=1;" parent="1" edge="1">
          <mxGeometry width="50" height="50" relative="1" as="geometry">
            <mxPoint x="2475" y="3418" as="sourcePoint" />
            <mxPoint x="2474.4269999999997" y="3518.9" as="targetPoint" />
          </mxGeometry>
        </mxCell>
        <mxCell id="ZZ5o5wnqqSk5ztr6BBlJ-190" value="" style="endArrow=none;html=1;rounded=0;fontFamily=Architects Daughter;fontSource=https%3A%2F%2Ffonts.googleapis.com%2Fcss%3Ffamily%3DArchitects%2BDaughter;fontSize=16;startSize=14;endSize=14;sourcePerimeterSpacing=8;targetPerimeterSpacing=8;exitX=0.056;exitY=0;exitDx=0;exitDy=0;exitPerimeter=0;edgeStyle=orthogonalEdgeStyle;strokeWidth=6;strokeColor=#505050;startArrow=block;startFill=1;" parent="1" edge="1">
          <mxGeometry width="50" height="50" relative="1" as="geometry">
            <mxPoint x="2473.376" y="3985" as="sourcePoint" />
            <mxPoint x="2518" y="4090" as="targetPoint" />
            <Array as="points">
              <mxPoint x="2473" y="4090" />
              <mxPoint x="2518" y="4090" />
            </Array>
          </mxGeometry>
        </mxCell>
        <mxCell id="ZZ5o5wnqqSk5ztr6BBlJ-191" value="" style="endArrow=none;html=1;rounded=0;fontFamily=Architects Daughter;fontSource=https%3A%2F%2Ffonts.googleapis.com%2Fcss%3Ffamily%3DArchitects%2BDaughter;fontSize=16;startSize=14;endSize=14;sourcePerimeterSpacing=8;targetPerimeterSpacing=8;entryX=0;entryY=0.5;entryDx=0;entryDy=0;exitX=0.056;exitY=0;exitDx=0;exitDy=0;exitPerimeter=0;edgeStyle=orthogonalEdgeStyle;strokeWidth=6;strokeColor=#505050;" parent="1" edge="1">
          <mxGeometry width="50" height="50" relative="1" as="geometry">
            <mxPoint x="2473" y="4083" as="sourcePoint" />
            <mxPoint x="2518" y="4148" as="targetPoint" />
            <Array as="points">
              <mxPoint x="2473" y="4148" />
            </Array>
          </mxGeometry>
        </mxCell>
        <mxCell id="ZZ5o5wnqqSk5ztr6BBlJ-192" value="" style="endArrow=none;html=1;rounded=0;fontFamily=Architects Daughter;fontSource=https%3A%2F%2Ffonts.googleapis.com%2Fcss%3Ffamily%3DArchitects%2BDaughter;fontSize=16;startSize=14;endSize=14;sourcePerimeterSpacing=8;targetPerimeterSpacing=8;entryX=0;entryY=0.5;entryDx=0;entryDy=0;exitX=0.056;exitY=0;exitDx=0;exitDy=0;exitPerimeter=0;edgeStyle=orthogonalEdgeStyle;strokeWidth=6;strokeColor=#505050;" parent="1" edge="1">
          <mxGeometry width="50" height="50" relative="1" as="geometry">
            <mxPoint x="2473" y="4138" as="sourcePoint" />
            <mxPoint x="2518" y="4203" as="targetPoint" />
            <Array as="points">
              <mxPoint x="2473" y="4203" />
            </Array>
          </mxGeometry>
        </mxCell>
        <mxCell id="ZZ5o5wnqqSk5ztr6BBlJ-193" value="&lt;font style=&quot;font-size: 24px;&quot;&gt;Cloud Landing Zone&lt;/font&gt;" style="rounded=0;whiteSpace=wrap;html=1;fontFamily=Architects Daughter;fontSource=https%3A%2F%2Ffonts.googleapis.com%2Fcss%3Ffamily%3DArchitects%2BDaughter;verticalAlign=top;fillColor=#b0e3e6;strokeColor=#0e8088;" parent="1" vertex="1">
          <mxGeometry x="2029.5" y="2149" width="892" height="973" as="geometry" />
        </mxCell>
        <mxCell id="ZZ5o5wnqqSk5ztr6BBlJ-194" value="&lt;font style=&quot;font-size: 24px;&quot;&gt;Platform Landing Zones&lt;br&gt;&lt;br&gt;&lt;/font&gt;&lt;div&gt;&lt;font style=&quot;font-size: 24px;&quot;&gt;&lt;br&gt;&lt;/font&gt;&lt;/div&gt;&lt;div&gt;&lt;br&gt;&lt;/div&gt;" style="rounded=0;whiteSpace=wrap;html=1;fontFamily=Architects Daughter;fontSource=https%3A%2F%2Ffonts.googleapis.com%2Fcss%3Ffamily%3DArchitects%2BDaughter;verticalAlign=top;fillColor=#d0cee2;strokeColor=#56517e;" parent="1" vertex="1">
          <mxGeometry x="2052.5" y="2872" width="846" height="219" as="geometry" />
        </mxCell>
        <mxCell id="ZZ5o5wnqqSk5ztr6BBlJ-195" value="&lt;font style=&quot;font-size: 24px;&quot;&gt;Application Landing Zones&lt;br&gt;&lt;br&gt;&amp;nbsp;&lt;/font&gt;" style="rounded=0;whiteSpace=wrap;html=1;fontFamily=Architects Daughter;fontSource=https%3A%2F%2Ffonts.googleapis.com%2Fcss%3Ffamily%3DArchitects%2BDaughter;verticalAlign=top;fillColor=#b1ddf0;strokeColor=#10739e;" parent="1" vertex="1">
          <mxGeometry x="2053.5" y="2245" width="845" height="605" as="geometry" />
        </mxCell>
        <mxCell id="ZZ5o5wnqqSk5ztr6BBlJ-196" value="&lt;font style=&quot;font-size: 24px;&quot;&gt;Identity&lt;/font&gt;" style="rounded=0;whiteSpace=wrap;html=1;fontFamily=Architects Daughter;fontSource=https%3A%2F%2Ffonts.googleapis.com%2Fcss%3Ffamily%3DArchitects%2BDaughter;fillColor=#fff2cc;strokeColor=#d6b656;" parent="1" vertex="1">
          <mxGeometry x="2114.5" y="2912" width="730" height="49.5" as="geometry" />
        </mxCell>
        <mxCell id="ZZ5o5wnqqSk5ztr6BBlJ-197" value="&lt;font style=&quot;font-size: 24px;&quot;&gt;Application Landing Zones - Data&lt;br&gt;&lt;/font&gt;" style="rounded=0;whiteSpace=wrap;html=1;fontFamily=Architects Daughter;fontSource=https%3A%2F%2Ffonts.googleapis.com%2Fcss%3Ffamily%3DArchitects%2BDaughter;verticalAlign=top;fillColor=#bac8d3;strokeColor=#23445d;" parent="1" vertex="1">
          <mxGeometry x="2118.5" y="2301" width="727" height="175" as="geometry" />
        </mxCell>
        <mxCell id="ZZ5o5wnqqSk5ztr6BBlJ-198" value="&lt;font style=&quot;font-size: 24px;&quot;&gt;Application Landing Zone - Online&lt;br&gt;&lt;/font&gt;" style="rounded=0;whiteSpace=wrap;html=1;fontFamily=Architects Daughter;fontSource=https%3A%2F%2Ffonts.googleapis.com%2Fcss%3Ffamily%3DArchitects%2BDaughter;verticalAlign=top;fillColor=#fad9d5;strokeColor=#ae4132;" parent="1" vertex="1">
          <mxGeometry x="2118.5" y="2488" width="727" height="170" as="geometry" />
        </mxCell>
        <mxCell id="ZZ5o5wnqqSk5ztr6BBlJ-199" value="&lt;font style=&quot;font-size: 24px;&quot;&gt;Application Landing Zone - Corp&lt;br&gt;&lt;/font&gt;" style="rounded=0;whiteSpace=wrap;html=1;fontFamily=Architects Daughter;fontSource=https%3A%2F%2Ffonts.googleapis.com%2Fcss%3Ffamily%3DArchitects%2BDaughter;verticalAlign=top;fillColor=#cdeb8b;strokeColor=#36393d;" parent="1" vertex="1">
          <mxGeometry x="2118.5" y="2672" width="726" height="168" as="geometry" />
        </mxCell>
        <mxCell id="ZZ5o5wnqqSk5ztr6BBlJ-200" value="&lt;span style=&quot;font-size: 24px;&quot;&gt;Management&lt;/span&gt;" style="rounded=0;whiteSpace=wrap;html=1;fontFamily=Architects Daughter;fontSource=https%3A%2F%2Ffonts.googleapis.com%2Fcss%3Ffamily%3DArchitects%2BDaughter;fillColor=#fff2cc;strokeColor=#d6b656;" parent="1" vertex="1">
          <mxGeometry x="2114.5" y="2969" width="730" height="49.5" as="geometry" />
        </mxCell>
        <mxCell id="ZZ5o5wnqqSk5ztr6BBlJ-201" value="&lt;font style=&quot;font-size: 24px;&quot;&gt;Networking&lt;/font&gt;" style="rounded=0;whiteSpace=wrap;html=1;fontFamily=Architects Daughter;fontSource=https%3A%2F%2Ffonts.googleapis.com%2Fcss%3Ffamily%3DArchitects%2BDaughter;fillColor=#fff2cc;strokeColor=#d6b656;" parent="1" vertex="1">
          <mxGeometry x="2114.5" y="3025" width="730" height="49.5" as="geometry" />
        </mxCell>
        <mxCell id="ZZ5o5wnqqSk5ztr6BBlJ-202" value="&lt;font style=&quot;font-size: 24px;&quot;&gt;Application A&lt;/font&gt;" style="rounded=0;whiteSpace=wrap;html=1;fontFamily=Architects Daughter;fontSource=https%3A%2F%2Ffonts.googleapis.com%2Fcss%3Ffamily%3DArchitects%2BDaughter;" parent="1" vertex="1">
          <mxGeometry x="2131" y="2370" width="167" height="71" as="geometry" />
        </mxCell>
        <mxCell id="ZZ5o5wnqqSk5ztr6BBlJ-203" value="&lt;font style=&quot;font-size: 24px;&quot;&gt;Application B&lt;/font&gt;" style="rounded=0;whiteSpace=wrap;html=1;fontFamily=Architects Daughter;fontSource=https%3A%2F%2Ffonts.googleapis.com%2Fcss%3Ffamily%3DArchitects%2BDaughter;" parent="1" vertex="1">
          <mxGeometry x="2220" y="2554" width="167" height="71" as="geometry" />
        </mxCell>
        <mxCell id="ZZ5o5wnqqSk5ztr6BBlJ-204" value="&lt;font style=&quot;font-size: 24px;&quot;&gt;Application C&lt;/font&gt;" style="rounded=0;whiteSpace=wrap;html=1;fontFamily=Architects Daughter;fontSource=https%3A%2F%2Ffonts.googleapis.com%2Fcss%3Ffamily%3DArchitects%2BDaughter;" parent="1" vertex="1">
          <mxGeometry x="2426" y="2554" width="167" height="71" as="geometry" />
        </mxCell>
        <mxCell id="ZZ5o5wnqqSk5ztr6BBlJ-205" value="&lt;font style=&quot;font-size: 24px;&quot;&gt;Application D&lt;/font&gt;" style="rounded=0;whiteSpace=wrap;html=1;fontFamily=Architects Daughter;fontSource=https%3A%2F%2Ffonts.googleapis.com%2Fcss%3Ffamily%3DArchitects%2BDaughter;" parent="1" vertex="1">
          <mxGeometry x="2309" y="2370" width="167" height="71" as="geometry" />
        </mxCell>
        <mxCell id="ZZ5o5wnqqSk5ztr6BBlJ-206" value="&lt;font style=&quot;font-size: 24px;&quot;&gt;Application X&lt;/font&gt;" style="rounded=0;whiteSpace=wrap;html=1;fontFamily=Architects Daughter;fontSource=https%3A%2F%2Ffonts.googleapis.com%2Fcss%3Ffamily%3DArchitects%2BDaughter;" parent="1" vertex="1">
          <mxGeometry x="2276" y="2745" width="167" height="71" as="geometry" />
        </mxCell>
        <mxCell id="ZZ5o5wnqqSk5ztr6BBlJ-207" value="&lt;font style=&quot;font-size: 24px;&quot;&gt;Application Y&lt;/font&gt;" style="rounded=0;whiteSpace=wrap;html=1;fontFamily=Architects Daughter;fontSource=https%3A%2F%2Ffonts.googleapis.com%2Fcss%3Ffamily%3DArchitects%2BDaughter;" parent="1" vertex="1">
          <mxGeometry x="2548" y="2745" width="167" height="71" as="geometry" />
        </mxCell>
        <mxCell id="ZZ5o5wnqqSk5ztr6BBlJ-208" value="&lt;font style=&quot;font-size: 24px;&quot;&gt;Application E&lt;/font&gt;" style="rounded=0;whiteSpace=wrap;html=1;fontFamily=Architects Daughter;fontSource=https%3A%2F%2Ffonts.googleapis.com%2Fcss%3Ffamily%3DArchitects%2BDaughter;" parent="1" vertex="1">
          <mxGeometry x="2487" y="2370" width="167" height="71" as="geometry" />
        </mxCell>
        <mxCell id="ZZ5o5wnqqSk5ztr6BBlJ-209" value="&lt;font style=&quot;font-size: 24px;&quot;&gt;Application F&lt;/font&gt;" style="rounded=0;whiteSpace=wrap;html=1;fontFamily=Architects Daughter;fontSource=https%3A%2F%2Ffonts.googleapis.com%2Fcss%3Ffamily%3DArchitects%2BDaughter;" parent="1" vertex="1">
          <mxGeometry x="2665" y="2370" width="167" height="71" as="geometry" />
        </mxCell>
        <mxCell id="ZZ5o5wnqqSk5ztr6BBlJ-210" value="&lt;font style=&quot;font-size: 24px;&quot;&gt;Application G&lt;/font&gt;" style="rounded=0;whiteSpace=wrap;html=1;fontFamily=Architects Daughter;fontSource=https%3A%2F%2Ffonts.googleapis.com%2Fcss%3Ffamily%3DArchitects%2BDaughter;" parent="1" vertex="1">
          <mxGeometry x="2632" y="2554" width="167" height="71" as="geometry" />
        </mxCell>
        <mxCell id="ZZ5o5wnqqSk5ztr6BBlJ-211" value="&lt;font style=&quot;font-size: 24px;&quot;&gt;Cloud Landing Zone&lt;/font&gt;" style="rounded=0;whiteSpace=wrap;html=1;fontFamily=Architects Daughter;fontSource=https%3A%2F%2Ffonts.googleapis.com%2Fcss%3Ffamily%3DArchitects%2BDaughter;verticalAlign=top;fillColor=#b0e3e6;strokeColor=#0e8088;" parent="1" vertex="1">
          <mxGeometry x="-440" y="2054" width="1233" height="794" as="geometry" />
        </mxCell>
        <mxCell id="ZZ5o5wnqqSk5ztr6BBlJ-212" value="&lt;font style=&quot;font-size: 24px;&quot;&gt;Platform Landing Zones&lt;/font&gt;" style="rounded=0;whiteSpace=wrap;html=1;fontFamily=Architects Daughter;fontSource=https%3A%2F%2Ffonts.googleapis.com%2Fcss%3Ffamily%3DArchitects%2BDaughter;verticalAlign=top;fillColor=#d0cee2;strokeColor=#56517e;" parent="1" vertex="1">
          <mxGeometry x="-413" y="2222" width="609" height="602" as="geometry" />
        </mxCell>
        <mxCell id="ZZ5o5wnqqSk5ztr6BBlJ-213" value="&lt;font style=&quot;font-size: 24px;&quot;&gt;Application Landing Zones&lt;br&gt;&lt;br&gt;&lt;br&gt;&lt;br&gt;Types are unique to your Organization and it&#39;s business, security and compliance needs.&amp;nbsp;&lt;/font&gt;" style="rounded=0;whiteSpace=wrap;html=1;fontFamily=Architects Daughter;fontSource=https%3A%2F%2Ffonts.googleapis.com%2Fcss%3Ffamily%3DArchitects%2BDaughter;verticalAlign=top;fillColor=#b1ddf0;strokeColor=#10739e;" parent="1" vertex="1">
          <mxGeometry x="363" y="2202" width="407" height="371" as="geometry" />
        </mxCell>
        <mxCell id="ZZ5o5wnqqSk5ztr6BBlJ-214" value="Azure" style="shape=image;verticalLabelPosition=bottom;labelBackgroundColor=default;verticalAlign=top;aspect=fixed;imageAspect=0;image=https://swimburger.net/media/ppnn3pcl/azure.png;fontSize=23;fontFamily=Architects Daughter;fontSource=https%3A%2F%2Ffonts.googleapis.com%2Fcss%3Ffamily%3DArchitects%2BDaughter;" parent="1" vertex="1">
          <mxGeometry x="294" y="2143" width="105" height="105" as="geometry" />
        </mxCell>
        <mxCell id="ZZ5o5wnqqSk5ztr6BBlJ-215" value="&lt;span style=&quot;font-size: 24px;&quot;&gt;Tenant Landing Zone&lt;/span&gt;&lt;div&gt;&lt;span style=&quot;font-size: 24px;&quot;&gt;&lt;br&gt;&lt;/span&gt;&lt;/div&gt;&lt;div&gt;&lt;span style=&quot;font-size: 24px;&quot;&gt;The control plane(s) of the whole Enterprise Landing Zone.&lt;/span&gt;&lt;/div&gt;&lt;div&gt;&lt;span style=&quot;font-size: 24px;&quot;&gt;Enterprise enrollment, Identity and Access Management, Management Group Structure &amp;amp; Platform Automation Tooling&lt;/span&gt;&lt;/div&gt;" style="rounded=0;whiteSpace=wrap;html=1;fontFamily=Architects Daughter;fontSource=https%3A%2F%2Ffonts.googleapis.com%2Fcss%3Ffamily%3DArchitects%2BDaughter;verticalAlign=top;fillColor=#fad7ac;strokeColor=#b46504;" parent="1" vertex="1">
          <mxGeometry x="-190" y="543" width="838" height="178" as="geometry" />
        </mxCell>
        <mxCell id="ZZ5o5wnqqSk5ztr6BBlJ-216" value="&lt;font style=&quot;font-size: 18px;&quot;&gt;Azure DevOps&lt;/font&gt;" style="image;aspect=fixed;html=1;points=[];align=center;fontSize=12;image=img/lib/azure2/devops/Azure_DevOps.svg;fontFamily=Architects Daughter;fontSource=https%3A%2F%2Ffonts.googleapis.com%2Fcss%3Ffamily%3DArchitects%2BDaughter;" parent="1" vertex="1">
          <mxGeometry x="496" y="512" width="54" height="54" as="geometry" />
        </mxCell>
        <mxCell id="ZZ5o5wnqqSk5ztr6BBlJ-217" value="&lt;font style=&quot;font-size: 18px;&quot;&gt;GitHub&lt;/font&gt;" style="dashed=0;outlineConnect=0;html=1;align=center;labelPosition=center;verticalLabelPosition=bottom;verticalAlign=top;shape=mxgraph.weblogos.github;fontFamily=Architects Daughter;fontSource=https%3A%2F%2Ffonts.googleapis.com%2Fcss%3Ffamily%3DArchitects%2BDaughter;" parent="1" vertex="1">
          <mxGeometry x="587" y="507" width="62" height="60" as="geometry" />
        </mxCell>
        <mxCell id="ZZ5o5wnqqSk5ztr6BBlJ-218" value="Entra ID" style="shape=image;verticalLabelPosition=bottom;labelBackgroundColor=default;verticalAlign=top;aspect=fixed;imageAspect=0;image=https://upload.wikimedia.org/wikipedia/commons/thumb/8/8c/Microsoft_Entra_ID_color_icon.svg/1200px-Microsoft_Entra_ID_color_icon.svg.png;fontSize=18;fontFamily=Architects Daughter;fontSource=https%3A%2F%2Ffonts.googleapis.com%2Fcss%3Ffamily%3DArchitects%2BDaughter;" parent="1" vertex="1">
          <mxGeometry x="-205" y="517" width="62" height="62" as="geometry" />
        </mxCell>
        <mxCell id="ZZ5o5wnqqSk5ztr6BBlJ-219" value="Azure" style="shape=image;verticalLabelPosition=bottom;labelBackgroundColor=default;verticalAlign=top;aspect=fixed;imageAspect=0;image=https://swimburger.net/media/ppnn3pcl/azure.png;fontSize=18;fontFamily=Architects Daughter;fontSource=https%3A%2F%2Ffonts.googleapis.com%2Fcss%3Ffamily%3DArchitects%2BDaughter;strokeWidth=3;" parent="1" vertex="1">
          <mxGeometry x="190" y="695" width="78" height="78" as="geometry" />
        </mxCell>
      </root>
    </mxGraphModel>
  </diagram>
</mxfile>
